<?xml version="1.0" standalone="no"?>
<!DOCTYPE svg PUBLIC "-//W3C//DTD SVG 20010904//EN"
 "http://www.w3.org/TR/2001/REC-SVG-20010904/DTD/svg10.dtd">
<svg version="1.0" xmlns="http://www.w3.org/2000/svg"
 width="512.000000pt" height="512.000000pt" viewBox="0 0 512.000000 512.000000"
 preserveAspectRatio="xMidYMid meet">
<metadata>
Created by potrace 1.11, written by Peter Selinger 2001-2013
</metadata>
<g transform="translate(0.000000,512.000000) scale(0.100000,-0.100000)"
fill="#000000" stroke="none">
<path d="M4477 5083 c-3 -21 -7 -49 -9 -63 -3 -29 -20 -50 -40 -50 -10 0 -9
-3 2 -10 12 -8 12 -10 -5 -11 -11 0 -14 -3 -7 -6 6 -2 12 -9 12 -14 0 -6 -4
-8 -9 -4 -5 3 -12 -4 -16 -15 -4 -11 -10 -18 -15 -15 -4 3 -6 -5 -2 -17 4 -16
2 -19 -9 -13 -8 5 -11 5 -7 0 4 -4 2 -15 -5 -23 -6 -9 -7 -13 -1 -9 6 3 11 0
11 -8 0 -8 -5 -13 -10 -12 -6 1 -13 -9 -16 -22 -4 -13 -15 -28 -26 -32 -17 -6
-17 -8 -2 -8 9 -1 17 -5 17 -11 0 -5 -3 -9 -7 -9 -24 4 -35 -3 -29 -17 3 -8 2
-12 -4 -9 -6 3 -10 1 -10 -4 0 -6 5 -11 12 -11 6 0 3 -7 -8 -15 -10 -8 -14
-15 -7 -15 7 0 10 -7 6 -16 -5 -13 -7 -13 -14 -2 -9 14 -12 6 -12 -35 0 -12
-5 -16 -14 -13 -8 3 -11 1 -8 -4 3 -6 1 -10 -4 -10 -6 0 -11 -5 -11 -11 0 -5
6 -7 13 -4 6 4 1 -3 -13 -14 -20 -16 -22 -21 -8 -21 26 0 11 -27 -20 -36 -29
-8 -45 -10 -103 -15 -28 -2 -35 -7 -31 -18 3 -9 1 -12 -6 -7 -8 5 -10 1 -5
-10 5 -13 3 -16 -10 -11 -22 8 -21 3 1 -19 13 -14 13 -16 2 -12 -16 6 -34 -9
-36 -29 -2 -29 -5 -33 -20 -33 -12 0 -14 -4 -7 -12 5 -7 6 -26 2 -43 -3 -16
-7 -22 -8 -12 0 10 -6 15 -12 12 -6 -4 -8 -12 -6 -19 5 -12 -18 -38 -26 -30
-2 3 -3 -9 -2 -26 1 -17 -2 -33 -8 -37 -6 -4 -7 -1 -2 7 5 9 4 11 -3 6 -7 -4
-12 -15 -12 -24 0 -10 -7 -28 -16 -40 -8 -12 -12 -22 -8 -22 3 0 1 -7 -6 -15
-7 -8 -9 -15 -5 -15 4 0 2 -6 -4 -13 -6 -8 -7 -18 -3 -22 4 -5 2 -5 -5 -2 -8
5 -12 60 -12 180 -1 233 -12 437 -23 437 -5 0 -7 -4 -4 -8 2 -4 1 -14 -5 -22
-6 -11 -9 -12 -9 -2 0 7 -5 10 -10 7 -6 -4 -8 -11 -5 -16 4 -5 2 -9 -3 -9 -13
0 -22 -39 -11 -46 6 -3 -3 -18 -18 -34 -28 -27 -28 -27 -203 -34 -96 -3 -210
-6 -252 -6 -48 0 -78 -4 -78 -11 0 -5 5 -7 12 -3 7 4 8 3 4 -4 -4 -7 -13 -12
-20 -12 -10 0 -14 -63 -15 -305 l-2 -305 103 -1 c57 -1 108 -1 113 0 6 1 2 -5
-8 -13 -10 -7 -17 -18 -15 -22 1 -5 -3 -18 -9 -29 -6 -11 -11 -24 -11 -28 0
-5 -4 -12 -8 -15 -4 -4 -4 -1 0 6 4 6 4 12 1 12 -10 0 -36 -70 -30 -80 4 -6
-2 -7 -12 -3 -15 6 -16 4 -5 -9 11 -14 10 -18 -5 -30 -10 -7 -18 -20 -18 -28
0 -8 -8 -24 -17 -34 -10 -11 -16 -29 -14 -43 3 -13 1 -21 -5 -18 -5 4 -6 11
-3 17 4 7 2 8 -5 4 -6 -4 -9 -11 -6 -16 3 -5 1 -11 -5 -15 -6 -4 -8 -11 -5
-16 8 -12 -20 -51 -30 -41 -4 4 -3 -3 4 -15 7 -14 8 -24 1 -28 -5 -3 -10 -37
-10 -76 l0 -69 143 -1 c78 -1 222 -4 320 -8 l177 -6 0 272 0 272 113 3 c61 2
203 5 315 6 l202 3 0 -286 0 -285 313 -2 312 -3 -310 -5 -310 -5 -3 -317 -2
-318 -30 0 c-17 0 -30 3 -31 8 0 4 -2 16 -5 27 -2 11 1 32 6 48 7 21 6 27 -6
27 -7 0 -14 5 -14 11 0 6 7 9 14 6 10 -4 13 -1 9 9 -3 7 -10 14 -17 14 -6 0
-5 4 3 9 12 8 12 12 2 25 -11 12 -11 16 -1 16 10 0 10 3 1 14 -9 10 -9 16 -1
21 8 5 8 11 -1 21 -9 11 -8 14 2 14 11 0 11 2 -1 10 -13 9 -13 10 0 10 13 0
13 1 0 10 -10 6 -11 10 -2 10 6 0 12 12 12 26 0 14 -4 23 -10 19 -5 -3 -10 -2
-10 4 0 5 8 12 18 14 16 4 16 5 0 6 -14 1 -16 5 -8 26 7 18 6 25 -3 25 -8 0
-7 4 3 10 11 7 12 10 2 10 -10 0 -9 4 3 16 18 18 15 41 -5 36 -10 -2 -11 0 -3
10 6 7 12 16 12 21 1 4 1 8 2 10 6 20 5 38 -2 43 -6 3 -7 14 -4 25 6 18 -3 19
-287 19 -161 1 -723 2 -1248 3 l-955 2 -3 318 -2 317 -315 0 -315 0 0 -640 0
-640 -325 0 -325 0 0 320 0 320 -315 0 -315 0 0 -1275 0 -1276 194 1 c107 1
197 4 200 7 3 3 0 15 -5 26 -6 11 -7 22 -2 26 11 7 10 22 -1 39 -4 7 -5 16 -2
19 3 3 1 12 -5 19 -6 7 -7 19 -3 25 5 9 10 7 15 -7 5 -13 7 -8 4 16 -1 19 -7
34 -12 33 -5 -1 -10 4 -10 12 0 8 5 11 11 8 6 -4 5 1 -3 10 -12 15 -11 17 3
17 16 0 16 2 2 22 -14 19 -14 24 1 49 13 22 14 31 4 42 -9 12 -9 16 1 20 10 4
8 10 -6 21 -11 9 -14 16 -8 16 13 0 9 71 -5 93 -3 6 -1 7 5 3 8 -5 12 1 12 14
0 19 5 21 54 18 56 -3 62 -11 36 -44 -13 -16 -13 -17 2 -11 13 4 15 2 11 -11
-4 -9 -11 -20 -17 -24 -7 -5 -3 -8 9 -8 17 0 17 -2 5 -10 -8 -5 -11 -10 -6
-10 5 0 2 -8 -5 -17 -8 -10 -9 -14 -2 -10 19 12 25 -10 7 -27 -8 -9 -11 -16
-5 -16 6 0 11 -7 11 -16 0 -8 -4 -13 -8 -10 -5 3 -9 -1 -9 -9 0 -8 4 -12 8 -9
5 3 7 -33 4 -80 -2 -51 0 -88 6 -92 6 -4 5 -11 -2 -21 -10 -12 -10 -16 2 -24
10 -6 11 -9 1 -9 -7 0 -10 -5 -7 -10 3 -6 1 -10 -4 -10 -6 0 -11 -5 -11 -11 0
-5 5 -7 12 -3 7 4 8 3 4 -4 -13 -22 13 -53 42 -50 21 2 27 8 27 28 1 14 -4 28
-10 32 -6 5 -4 8 5 8 12 0 13 2 1 9 -10 6 -11 17 -6 37 9 32 9 32 -1 58 -5 13
-4 17 4 12 6 -3 14 -2 17 4 4 6 1 9 -6 8 -6 -2 -12 9 -13 25 -1 15 1 27 4 27
11 0 7 55 -4 62 -8 6 -7 10 1 16 8 5 9 13 3 22 -5 9 -5 20 2 28 9 10 8 16 -1
22 -8 4 -10 13 -7 19 4 6 13 8 19 4 7 -4 5 1 -3 11 -16 21 -22 45 -12 60 3 6
5 21 3 34 -2 20 2 22 38 22 l41 0 0 -267 c0 -148 3 -285 6 -305 l7 -38 316 -2
316 -3 3 -287 2 -288 1275 0 1275 0 0 598 c0 328 3 614 6 634 l7 38 -327 0
-326 0 0 -320 0 -321 -324 3 c-178 2 -327 5 -329 8 -3 3 -8 31 -11 63 -5 42
-3 57 6 57 6 0 3 6 -8 14 -17 13 -18 15 -2 21 12 5 15 13 9 28 -8 25 -7 98 2
122 4 8 2 15 -3 15 -6 0 -10 5 -10 11 0 5 5 7 12 3 7 -5 8 -3 3 6 -11 18 -11
62 -1 79 5 7 3 18 -3 24 -14 14 -15 40 -1 32 7 -4 7 3 0 19 -6 17 -6 26 0 26
12 0 9 22 -5 32 -6 5 -5 8 3 8 9 0 10 4 0 19 -9 15 -8 22 4 34 13 14 66 17
337 23 l321 7 0 319 0 318 231 0 c205 0 230 2 219 15 -7 8 -9 15 -5 15 4 0 1
8 -6 17 -10 11 -10 14 -1 9 15 -9 16 6 2 20 -7 7 -8 19 -1 36 7 18 6 29 -2 37
-8 8 -8 14 2 24 11 10 13 10 7 0 -4 -7 -2 -13 3 -13 14 0 14 13 -1 28 -13 13
-20 85 -8 77 4 -3 8 22 7 55 0 40 -4 57 -11 52 -6 -3 -4 5 5 18 15 25 15 60
-1 60 -9 0 -8 26 2 36 4 3 4 13 1 21 -3 8 0 19 8 24 8 5 9 9 3 9 -5 0 -9 14
-8 30 1 17 -2 33 -7 36 -25 15 12 24 102 24 l99 0 0 -314 c0 -173 3 -317 8
-319 4 -2 148 -2 320 1 l312 4 0 267 c0 146 3 290 6 319 l7 52 262 0 c222 0
264 2 268 15 4 8 2 17 -3 20 -6 4 -7 14 -2 23 12 26 8 52 -8 62 -10 7 -11 10
-2 10 6 0 12 7 12 16 0 8 -5 12 -11 8 -8 -4 -9 1 -4 16 4 12 8 29 9 36 1 7 5
17 9 20 10 11 9 26 -2 20 -5 -3 -11 1 -15 9 -3 8 -1 17 4 20 5 3 6 13 3 22 -4
10 -2 14 4 10 11 -7 12 10 2 28 -4 6 -4 19 -2 30 12 56 11 64 -5 59 -15 -5
-15 -4 1 9 11 9 15 21 11 32 -5 13 -9 14 -15 3 -7 -10 -9 -10 -9 0 0 7 7 15
16 19 15 6 15 7 -1 19 -27 20 -4 40 55 48 l50 7 0 994 0 995 -319 0 -319 0 -5
-37z m5 -1216 c4 -7 8 -15 8 -19 0 -5 -146 -8 -325 -8 -191 0 -325 4 -325 9 0
5 3 17 7 27 6 15 28 16 317 9 217 -5 313 -10 318 -18z m-1915 -919 c-1 -40 -3
-10 -3 67 0 77 1 110 3 73 2 -37 2 -100 0 -140z m383 -356 c162 -5 254 -11
253 -17 -2 -6 -117 -10 -320 -10 -312 0 -318 0 -321 20 -3 19 2 20 65 17 37
-2 183 -6 323 -10z m-1030 -347 l0 -315 -315 0 -315 0 0 315 0 315 315 0 315
0 0 -315z m5 -1280 l0 -320 -320 0 -320 0 -3 317 -2 317 37 4 c21 2 166 3 323
3 l285 -1 0 -320z m-1525 30 c0 -8 -2 -15 -4 -15 -2 0 -6 7 -10 15 -3 8 -1 15
4 15 6 0 10 -7 10 -15z"/>
<path d="M3186 5055 c-3 -8 -1 -15 4 -15 6 0 10 7 10 15 0 8 -2 15 -4 15 -2 0
-6 -7 -10 -15z"/>
<path d="M3170 5016 c0 -20 -28 -72 -37 -68 -4 2 -9 -1 -11 -7 -2 -6 1 -11 8
-11 8 0 8 -6 0 -20 -6 -11 -15 -18 -19 -15 -5 3 -12 -2 -15 -11 -3 -8 -2 -13
2 -10 4 2 8 -8 9 -22 1 -24 0 -25 -12 -9 -8 11 -16 14 -19 8 -4 -5 -2 -12 4
-16 15 -10 12 -35 -5 -35 -8 0 -15 -5 -15 -11 0 -5 -6 -7 -12 -3 -9 5 -9 2 1
-9 9 -11 10 -17 2 -17 -6 0 -10 -3 -10 -7 3 -20 -2 -34 -10 -28 -12 7 -31 -26
-31 -54 0 -12 -4 -21 -10 -21 -5 0 -10 -7 -10 -15 0 -8 -6 -15 -12 -15 -10 0
-10 -2 0 -9 11 -6 10 -10 -4 -15 -15 -6 -16 -9 -5 -15 16 -10 6 -31 -15 -31
-8 0 -13 -4 -10 -9 3 -5 -1 -12 -10 -15 -13 -5 -14 -9 -4 -21 10 -12 40 -15
146 -15 l134 0 0 264 c0 225 -2 265 -15 270 -9 3 -15 0 -15 -8z"/>
<path d="M2938 4563 c7 -3 16 -2 19 1 4 3 -2 6 -13 5 -11 0 -14 -3 -6 -6z"/>
<path d="M4490 1612 l0 -322 315 0 315 0 0 315 0 315 -127 0 c-71 0 -212 3
-315 7 l-188 6 0 -321z"/>
</g>
</svg>
